# Blender v2.78 (sub 0) OBJ File: ''
# www.blender.org
mtllib leaf.mtl
o Cube_Cube.001_Material
v -0.498688 -0.491247 0.498704
v -0.498688 0.503753 0.498704
v -0.498688 0.503753 -0.501296
v -0.498688 -0.491247 -0.501296
v 0.501312 0.503753 -0.501296
v 0.501312 -0.491247 -0.501296
v 0.501312 0.503753 0.498704
v 0.501312 -0.491247 0.498704
v 0.789751 0.822958 0.756780
v -0.780059 0.818740 -0.770906
v -0.777422 -0.805438 -0.769130
v 0.792387 -0.801218 0.758556
v -0.763453 0.820465 0.782422
v 0.764235 0.821229 -0.787393
v 0.766872 -0.802948 -0.785617
v -0.760816 -0.803712 0.784198
vt 0.2500 0.2500
vt 0.2500 0.7500
vt 0.7500 0.7500
vt 0.7500 0.2500
vt 0.2500 0.2500
vt 0.2500 0.7500
vt 0.7500 0.7500
vt 0.7500 0.2500
vt 0.2500 0.7500
vt 0.2500 0.2500
vt 0.7500 0.2500
vt 0.7500 0.7500
vt 0.7500 0.7500
vt 0.2500 0.7500
vt 0.7500 0.2500
vt 0.2500 0.2500
vt 0.0000 0.0000
vt 1.0000 0.0000
vt 1.0000 1.0000
vt 0.0000 1.0000
vt 0.0000 0.0000
vt 1.0000 0.0000
vt 1.0000 1.0000
vt 0.0000 1.0000
vn -1.0000 0.0000 0.0000
vn 0.0000 0.0000 -1.0000
vn 1.0000 -0.0000 0.0000
vn 0.0000 -0.0000 1.0000
vn 0.0000 -1.0000 -0.0000
vn 0.0000 1.0000 0.0000
vn -0.6974 -0.0003 0.7167
vn -0.7167 -0.0019 -0.6974
usemtl None
s 1
f 1/1/1 2/2/1 3/3/1 4/4/1
f 4/5/2 3/6/2 5/7/2 6/8/2
f 6/8/3 5/7/3 7/9/3 8/10/3
f 8/11/4 7/12/4 2/2/4 1/1/4
f 4/4/5 6/13/5 8/14/5 1/1/5
f 5/7/6 3/15/6 2/16/6 7/9/6
f 9/17/7 10/18/7 11/19/7 12/20/7
f 13/21/8 14/22/8 15/23/8 16/24/8
